<mxfile host="Electron" agent="Mozilla/5.0 (Windows NT 10.0; Win64; x64) AppleWebKit/537.36 (KHTML, like Gecko) draw.io/28.2.5 Chrome/138.0.7204.251 Electron/37.6.1 Safari/537.36" version="28.2.5">
  <diagram name="Page-1" id="NG1Gc-Ve07vEDgTMtZ5N">
    <mxGraphModel dx="1090" dy="705" grid="1" gridSize="10" guides="1" tooltips="1" connect="1" arrows="1" fold="1" page="1" pageScale="1" pageWidth="827" pageHeight="1169" math="0" shadow="0">
      <root>
        <mxCell id="0" />
        <mxCell id="1" parent="0" />
        <mxCell id="d2ELbXBqQaBjrkKP24Zb-2" value="BSDB:&lt;div&gt;kafka &lt;b&gt;core&lt;/b&gt; topic&lt;/div&gt;" style="verticalLabelPosition=bottom;aspect=fixed;html=1;shape=mxgraph.salesforce.stream;fillColorStyles=fillColor2,fillColor3,fillColor4;fillColor2=#032d60;fillColor3=#0d9dda;fillColor4=#ffffff;fillColor=none;strokeColor=none;" vertex="1" parent="1">
          <mxGeometry x="120" y="43" width="60" height="60" as="geometry" />
        </mxCell>
        <mxCell id="d2ELbXBqQaBjrkKP24Zb-3" value="Supervisor" style="outlineConnect=0;dashed=0;verticalLabelPosition=bottom;verticalAlign=top;align=center;html=1;shape=mxgraph.aws3.worker;fillColor=#D9A741;gradientColor=none;" vertex="1" parent="1">
          <mxGeometry x="280" y="40" width="60" height="63" as="geometry" />
        </mxCell>
        <mxCell id="d2ELbXBqQaBjrkKP24Zb-4" value="CDB" style="image;aspect=fixed;perimeter=ellipsePerimeter;html=1;align=center;shadow=0;dashed=0;spacingTop=3;image=img/lib/active_directory/database.svg;" vertex="1" parent="1">
          <mxGeometry x="285" y="170" width="50" height="37" as="geometry" />
        </mxCell>
        <mxCell id="d2ELbXBqQaBjrkKP24Zb-5" value="" style="endArrow=classic;html=1;rounded=0;entryX=0.967;entryY=0.466;entryDx=0;entryDy=0;entryPerimeter=0;exitX=0;exitY=0.5;exitDx=0;exitDy=0;exitPerimeter=0;" edge="1" parent="1" source="d2ELbXBqQaBjrkKP24Zb-3" target="d2ELbXBqQaBjrkKP24Zb-2">
          <mxGeometry width="50" height="50" relative="1" as="geometry">
            <mxPoint x="390" y="390" as="sourcePoint" />
            <mxPoint x="440" y="340" as="targetPoint" />
          </mxGeometry>
        </mxCell>
        <mxCell id="d2ELbXBqQaBjrkKP24Zb-6" value="1" style="edgeLabel;html=1;align=center;verticalAlign=middle;resizable=0;points=[];" vertex="1" connectable="0" parent="d2ELbXBqQaBjrkKP24Zb-5">
          <mxGeometry x="0.059" y="1" relative="1" as="geometry">
            <mxPoint as="offset" />
          </mxGeometry>
        </mxCell>
        <mxCell id="d2ELbXBqQaBjrkKP24Zb-7" value="" style="endArrow=classic;html=1;rounded=0;exitX=0.5;exitY=1;exitDx=0;exitDy=0;exitPerimeter=0;entryX=0.5;entryY=0;entryDx=0;entryDy=0;" edge="1" parent="1" source="d2ELbXBqQaBjrkKP24Zb-3" target="d2ELbXBqQaBjrkKP24Zb-4">
          <mxGeometry width="50" height="50" relative="1" as="geometry">
            <mxPoint x="390" y="390" as="sourcePoint" />
            <mxPoint x="440" y="340" as="targetPoint" />
          </mxGeometry>
        </mxCell>
        <mxCell id="d2ELbXBqQaBjrkKP24Zb-12" value="2" style="edgeLabel;html=1;align=center;verticalAlign=middle;resizable=0;points=[];" vertex="1" connectable="0" parent="d2ELbXBqQaBjrkKP24Zb-7">
          <mxGeometry x="0.1264" y="-1" relative="1" as="geometry">
            <mxPoint as="offset" />
          </mxGeometry>
        </mxCell>
        <mxCell id="d2ELbXBqQaBjrkKP24Zb-10" value="" style="endArrow=classic;html=1;rounded=0;exitX=0;exitY=0.5;exitDx=0;exitDy=0;exitPerimeter=0;entryX=1.017;entryY=0.735;entryDx=0;entryDy=0;entryPerimeter=0;" edge="1" parent="1" source="d2ELbXBqQaBjrkKP24Zb-3" target="d2ELbXBqQaBjrkKP24Zb-2">
          <mxGeometry width="50" height="50" relative="1" as="geometry">
            <mxPoint x="390" y="390" as="sourcePoint" />
            <mxPoint x="200" y="100" as="targetPoint" />
            <Array as="points">
              <mxPoint x="260" y="87" />
            </Array>
          </mxGeometry>
        </mxCell>
        <mxCell id="d2ELbXBqQaBjrkKP24Zb-11" value="3" style="edgeLabel;html=1;align=center;verticalAlign=middle;resizable=0;points=[];" vertex="1" connectable="0" parent="d2ELbXBqQaBjrkKP24Zb-10">
          <mxGeometry x="0.1565" y="1" relative="1" as="geometry">
            <mxPoint as="offset" />
          </mxGeometry>
        </mxCell>
      </root>
    </mxGraphModel>
  </diagram>
</mxfile>
